<mxfile modified="2023-03-15T22:09:41.380Z" host="Electron" agent="5.0 (Windows NT 10.0; Win64; x64) AppleWebKit/537.36 (KHTML, like Gecko) draw.io/20.3.0 Chrome/104.0.5112.114 Electron/20.1.3 Safari/537.36" etag="IGwv-d3R4wU0-q6VHqvE" compressed="false" version="20.3.0" type="device">
  <diagram id="2RXM7sX38PiaDnUr8v_C" name="Notification Management">
    <mxGraphModel dx="782" dy="517" grid="1" gridSize="10" guides="1" tooltips="1" connect="1" arrows="1" fold="1" page="1" pageScale="1" pageWidth="827" pageHeight="1169" math="0" shadow="0">
      <root>
        <mxCell id="NxLrh54Sxkp_m2qRzysd-0" />
        <mxCell id="NxLrh54Sxkp_m2qRzysd-1" parent="NxLrh54Sxkp_m2qRzysd-0" />
        <mxCell id="U1BWp0Xp3KbdW19bl_f6-0" value="" style="fontStyle=1;align=center;verticalAlign=top;childLayout=stackLayout;horizontal=1;horizontalStack=0;resizeParent=1;resizeParentMax=0;resizeLast=0;marginBottom=0;strokeColor=#82b366;strokeWidth=2;fillColor=none;" parent="NxLrh54Sxkp_m2qRzysd-1" vertex="1">
          <mxGeometry x="120" y="200" width="120" height="63" as="geometry" />
        </mxCell>
        <mxCell id="U1BWp0Xp3KbdW19bl_f6-1" value="List SummaryItems&lt;br&gt;of Notifications" style="html=1;align=left;spacingLeft=4;verticalAlign=middle;strokeColor=none;fillColor=none;fontStyle=1" parent="U1BWp0Xp3KbdW19bl_f6-0" vertex="1">
          <mxGeometry width="120" height="30" as="geometry" />
        </mxCell>
        <mxCell id="U1BWp0Xp3KbdW19bl_f6-2" value="" style="shape=ellipse;" parent="U1BWp0Xp3KbdW19bl_f6-1" vertex="1">
          <mxGeometry x="1" width="10" height="16" relative="1" as="geometry">
            <mxPoint x="-25" y="7" as="offset" />
          </mxGeometry>
        </mxCell>
        <mxCell id="U1BWp0Xp3KbdW19bl_f6-3" value="" style="line;strokeWidth=1;fillColor=none;align=left;verticalAlign=middle;spacingTop=-1;spacingLeft=3;spacingRight=3;rotatable=0;labelPosition=right;points=[];portConstraint=eastwest;" parent="U1BWp0Xp3KbdW19bl_f6-0" vertex="1">
          <mxGeometry y="30" width="120" height="8" as="geometry" />
        </mxCell>
        <mxCell id="U1BWp0Xp3KbdW19bl_f6-4" value="." style="html=1;align=center;spacingLeft=4;verticalAlign=top;strokeColor=none;fillColor=none;" parent="U1BWp0Xp3KbdW19bl_f6-0" vertex="1">
          <mxGeometry y="38" width="120" height="25" as="geometry" />
        </mxCell>
        <mxCell id="U1BWp0Xp3KbdW19bl_f6-8" value="" style="fontStyle=1;align=center;verticalAlign=top;childLayout=stackLayout;horizontal=1;horizontalStack=0;resizeParent=1;resizeParentMax=0;resizeLast=0;marginBottom=0;strokeColor=#82b366;strokeWidth=2;fillColor=none;" parent="NxLrh54Sxkp_m2qRzysd-1" vertex="1">
          <mxGeometry x="120" y="270" width="120" height="63" as="geometry" />
        </mxCell>
        <mxCell id="U1BWp0Xp3KbdW19bl_f6-9" value="Retrieve Single&lt;br&gt;Notification" style="html=1;align=left;spacingLeft=4;verticalAlign=middle;strokeColor=none;fillColor=none;fontStyle=1" parent="U1BWp0Xp3KbdW19bl_f6-8" vertex="1">
          <mxGeometry width="120" height="30" as="geometry" />
        </mxCell>
        <mxCell id="U1BWp0Xp3KbdW19bl_f6-10" value="" style="shape=ellipse;" parent="U1BWp0Xp3KbdW19bl_f6-9" vertex="1">
          <mxGeometry x="1" width="10" height="16" relative="1" as="geometry">
            <mxPoint x="-25" y="7" as="offset" />
          </mxGeometry>
        </mxCell>
        <mxCell id="U1BWp0Xp3KbdW19bl_f6-11" value="" style="line;strokeWidth=1;fillColor=none;align=left;verticalAlign=middle;spacingTop=-1;spacingLeft=3;spacingRight=3;rotatable=0;labelPosition=right;points=[];portConstraint=eastwest;" parent="U1BWp0Xp3KbdW19bl_f6-8" vertex="1">
          <mxGeometry y="30" width="120" height="8" as="geometry" />
        </mxCell>
        <mxCell id="U1BWp0Xp3KbdW19bl_f6-12" value="." style="html=1;align=center;spacingLeft=4;verticalAlign=top;strokeColor=none;fillColor=none;" parent="U1BWp0Xp3KbdW19bl_f6-8" vertex="1">
          <mxGeometry y="38" width="120" height="25" as="geometry" />
        </mxCell>
        <mxCell id="U1BWp0Xp3KbdW19bl_f6-13" style="edgeStyle=none;rounded=0;orthogonalLoop=1;jettySize=auto;html=1;entryX=0.999;entryY=-0.349;entryDx=0;entryDy=0;endArrow=open;endFill=0;entryPerimeter=0;exitX=0;exitY=0.25;exitDx=0;exitDy=0;" parent="NxLrh54Sxkp_m2qRzysd-1" source="U1BWp0Xp3KbdW19bl_f6-14" target="U1BWp0Xp3KbdW19bl_f6-4" edge="1">
          <mxGeometry relative="1" as="geometry" />
        </mxCell>
        <mxCell id="U1BWp0Xp3KbdW19bl_f6-40" style="edgeStyle=none;rounded=0;orthogonalLoop=1;jettySize=auto;html=1;entryX=1;entryY=1;entryDx=0;entryDy=0;endArrow=open;endFill=0;" parent="NxLrh54Sxkp_m2qRzysd-1" source="U1BWp0Xp3KbdW19bl_f6-14" target="U1BWp0Xp3KbdW19bl_f6-9" edge="1">
          <mxGeometry relative="1" as="geometry" />
        </mxCell>
        <mxCell id="U1BWp0Xp3KbdW19bl_f6-41" style="edgeStyle=none;rounded=0;orthogonalLoop=1;jettySize=auto;html=1;entryX=1;entryY=0.75;entryDx=0;entryDy=0;endArrow=open;endFill=0;" parent="NxLrh54Sxkp_m2qRzysd-1" source="U1BWp0Xp3KbdW19bl_f6-14" target="U1BWp0Xp3KbdW19bl_f6-16" edge="1">
          <mxGeometry relative="1" as="geometry" />
        </mxCell>
        <mxCell id="U1BWp0Xp3KbdW19bl_f6-42" style="edgeStyle=none;rounded=0;orthogonalLoop=1;jettySize=auto;html=1;entryX=0;entryY=0.75;entryDx=0;entryDy=0;endArrow=open;endFill=0;exitX=1;exitY=0.25;exitDx=0;exitDy=0;" parent="NxLrh54Sxkp_m2qRzysd-1" source="U1BWp0Xp3KbdW19bl_f6-14" target="U1BWp0Xp3KbdW19bl_f6-21" edge="1">
          <mxGeometry relative="1" as="geometry" />
        </mxCell>
        <mxCell id="U1BWp0Xp3KbdW19bl_f6-43" style="edgeStyle=none;rounded=0;orthogonalLoop=1;jettySize=auto;html=1;entryX=0;entryY=0.75;entryDx=0;entryDy=0;endArrow=open;endFill=0;exitX=1;exitY=0.75;exitDx=0;exitDy=0;" parent="NxLrh54Sxkp_m2qRzysd-1" source="U1BWp0Xp3KbdW19bl_f6-14" target="U1BWp0Xp3KbdW19bl_f6-31" edge="1">
          <mxGeometry relative="1" as="geometry" />
        </mxCell>
        <mxCell id="U1BWp0Xp3KbdW19bl_f6-14" value="&lt;p style=&quot;line-height: 100%&quot;&gt;&amp;lt;&amp;lt;actor&amp;gt;&amp;gt;&lt;br&gt;&lt;b&gt;Authenticated&lt;br&gt;User&lt;/b&gt;&lt;br&gt;&lt;/p&gt;" style="text;html=1;align=center;verticalAlign=middle;dashed=0;strokeColor=#000000;strokeWidth=2;" parent="NxLrh54Sxkp_m2qRzysd-1" vertex="1">
          <mxGeometry x="280" y="280" width="80" height="60" as="geometry" />
        </mxCell>
        <mxCell id="U1BWp0Xp3KbdW19bl_f6-15" value="" style="fontStyle=1;align=center;verticalAlign=top;childLayout=stackLayout;horizontal=1;horizontalStack=0;resizeParent=1;resizeParentMax=0;resizeLast=0;marginBottom=0;strokeColor=#82b366;strokeWidth=2;fillColor=none;" parent="NxLrh54Sxkp_m2qRzysd-1" vertex="1">
          <mxGeometry x="120" y="340" width="120" height="63" as="geometry" />
        </mxCell>
        <mxCell id="U1BWp0Xp3KbdW19bl_f6-16" value="Change State/ &lt;br&gt;Mark as Read" style="html=1;align=left;spacingLeft=4;verticalAlign=middle;strokeColor=none;fillColor=none;fontStyle=1" parent="U1BWp0Xp3KbdW19bl_f6-15" vertex="1">
          <mxGeometry width="120" height="30" as="geometry" />
        </mxCell>
        <mxCell id="U1BWp0Xp3KbdW19bl_f6-17" value="" style="shape=ellipse;" parent="U1BWp0Xp3KbdW19bl_f6-16" vertex="1">
          <mxGeometry x="1" width="10" height="16" relative="1" as="geometry">
            <mxPoint x="-25" y="7" as="offset" />
          </mxGeometry>
        </mxCell>
        <mxCell id="U1BWp0Xp3KbdW19bl_f6-18" value="" style="line;strokeWidth=1;fillColor=none;align=left;verticalAlign=middle;spacingTop=-1;spacingLeft=3;spacingRight=3;rotatable=0;labelPosition=right;points=[];portConstraint=eastwest;" parent="U1BWp0Xp3KbdW19bl_f6-15" vertex="1">
          <mxGeometry y="30" width="120" height="8" as="geometry" />
        </mxCell>
        <mxCell id="U1BWp0Xp3KbdW19bl_f6-19" value="." style="html=1;align=center;spacingLeft=4;verticalAlign=top;strokeColor=none;fillColor=none;" parent="U1BWp0Xp3KbdW19bl_f6-15" vertex="1">
          <mxGeometry y="38" width="120" height="25" as="geometry" />
        </mxCell>
        <mxCell id="U1BWp0Xp3KbdW19bl_f6-20" value="" style="fontStyle=1;align=center;verticalAlign=top;childLayout=stackLayout;horizontal=1;horizontalStack=0;resizeParent=1;resizeParentMax=0;resizeLast=0;marginBottom=0;strokeColor=#82b366;strokeWidth=2;fillColor=none;" parent="NxLrh54Sxkp_m2qRzysd-1" vertex="1">
          <mxGeometry x="400" y="200" width="120" height="63" as="geometry" />
        </mxCell>
        <mxCell id="U1BWp0Xp3KbdW19bl_f6-21" value="Create &lt;br&gt;Notification" style="html=1;align=left;spacingLeft=4;verticalAlign=middle;strokeColor=none;fillColor=none;fontStyle=1" parent="U1BWp0Xp3KbdW19bl_f6-20" vertex="1">
          <mxGeometry width="120" height="30" as="geometry" />
        </mxCell>
        <mxCell id="U1BWp0Xp3KbdW19bl_f6-22" value="" style="shape=ellipse;" parent="U1BWp0Xp3KbdW19bl_f6-21" vertex="1">
          <mxGeometry x="1" width="10" height="16" relative="1" as="geometry">
            <mxPoint x="-25" y="7" as="offset" />
          </mxGeometry>
        </mxCell>
        <mxCell id="U1BWp0Xp3KbdW19bl_f6-23" value="" style="line;strokeWidth=1;fillColor=none;align=left;verticalAlign=middle;spacingTop=-1;spacingLeft=3;spacingRight=3;rotatable=0;labelPosition=right;points=[];portConstraint=eastwest;" parent="U1BWp0Xp3KbdW19bl_f6-20" vertex="1">
          <mxGeometry y="30" width="120" height="8" as="geometry" />
        </mxCell>
        <mxCell id="U1BWp0Xp3KbdW19bl_f6-24" value="." style="html=1;align=center;spacingLeft=4;verticalAlign=top;strokeColor=none;fillColor=none;" parent="U1BWp0Xp3KbdW19bl_f6-20" vertex="1">
          <mxGeometry y="38" width="120" height="25" as="geometry" />
        </mxCell>
        <mxCell id="U1BWp0Xp3KbdW19bl_f6-30" value="" style="fontStyle=1;align=center;verticalAlign=top;childLayout=stackLayout;horizontal=1;horizontalStack=0;resizeParent=1;resizeParentMax=0;resizeLast=0;marginBottom=0;strokeColor=#82b366;strokeWidth=2;fillColor=none;" parent="NxLrh54Sxkp_m2qRzysd-1" vertex="1">
          <mxGeometry x="400" y="340" width="120" height="63" as="geometry" />
        </mxCell>
        <mxCell id="U1BWp0Xp3KbdW19bl_f6-31" value="Change State/&lt;br&gt;Soft Delete/Restore&lt;br&gt;Notification" style="html=1;align=left;spacingLeft=4;verticalAlign=middle;strokeColor=none;fillColor=none;fontStyle=1" parent="U1BWp0Xp3KbdW19bl_f6-30" vertex="1">
          <mxGeometry width="120" height="30" as="geometry" />
        </mxCell>
        <mxCell id="U1BWp0Xp3KbdW19bl_f6-32" value="" style="shape=ellipse;" parent="U1BWp0Xp3KbdW19bl_f6-31" vertex="1">
          <mxGeometry x="1" width="10" height="16" relative="1" as="geometry">
            <mxPoint x="-25" y="7" as="offset" />
          </mxGeometry>
        </mxCell>
        <mxCell id="U1BWp0Xp3KbdW19bl_f6-33" value="" style="line;strokeWidth=1;fillColor=none;align=left;verticalAlign=middle;spacingTop=-1;spacingLeft=3;spacingRight=3;rotatable=0;labelPosition=right;points=[];portConstraint=eastwest;" parent="U1BWp0Xp3KbdW19bl_f6-30" vertex="1">
          <mxGeometry y="30" width="120" height="8" as="geometry" />
        </mxCell>
        <mxCell id="U1BWp0Xp3KbdW19bl_f6-34" value="." style="html=1;align=center;spacingLeft=4;verticalAlign=top;strokeColor=none;fillColor=none;" parent="U1BWp0Xp3KbdW19bl_f6-30" vertex="1">
          <mxGeometry y="38" width="120" height="25" as="geometry" />
        </mxCell>
        <mxCell id="ZTPBIkmPvIhYFfGA6-ig-0" value="Title" parent="NxLrh54Sxkp_m2qRzysd-0" visible="0" />
        <mxCell id="Fi4_HFDYUnXGCg3XtQyT-13" value="&lt;font style=&quot;font-size: 12px&quot;&gt;&lt;span style=&quot;font-size: 12px&quot;&gt;Diagram: Base System Logical Module -&amp;nbsp;&lt;/span&gt;&lt;span style=&quot;font-size: 12px&quot;&gt;Functionality -&amp;nbsp;&lt;/span&gt;Organisation Notification&lt;/font&gt;" style="text;strokeColor=none;fillColor=none;html=1;fontSize=12;fontStyle=2;verticalAlign=middle;align=left;shadow=0;glass=0;comic=0;opacity=30;fontColor=#808080;" parent="ZTPBIkmPvIhYFfGA6-ig-0" vertex="1">
          <mxGeometry x="120" y="480" width="520" height="40" as="geometry" />
        </mxCell>
      </root>
    </mxGraphModel>
  </diagram>
</mxfile>
